<svg width="16" height="16" viewBox="0 0 16 16" fill="none" xmlns="http://www.w3.org/2000/svg">
<g clip-path="url(#clip0_553_1309)">
<path d="M7.99984 11.3332C9.84079 11.3332 11.3332 9.84079 11.3332 7.99984C11.3332 6.15889 9.84079 4.6665 7.99984 4.6665C6.15889 4.6665 4.6665 6.15889 4.6665 7.99984C4.6665 9.84079 6.15889 11.3332 7.99984 11.3332Z" fill="currentColor"/>
<path d="M7.35739 2.66683C7.35739 3.02187 7.6452 3.30969 8.00024 3.30969C8.35528 3.30969 8.6431 3.02187 8.6431 2.66683H7.35739ZM8.6431 1.3335C8.6431 0.978456 8.35528 0.690639 8.00024 0.690639C7.6452 0.690639 7.35739 0.978456 7.35739 1.3335H8.6431ZM8.6431 13.3335C8.6431 12.9785 8.35528 12.6906 8.00024 12.6906C7.6452 12.6906 7.35739 12.9785 7.35739 13.3335H8.6431ZM7.35739 14.6668C7.35739 15.0219 7.6452 15.3097 8.00024 15.3097C8.35528 15.3097 8.6431 15.0219 8.6431 14.6668H7.35739ZM8.6431 2.66683V1.3335H7.35739V2.66683H8.6431ZM7.35739 13.3335V14.6668H8.6431V13.3335H7.35739Z" fill="currentColor"/>
<path d="M3.82149 4.73087C4.07254 4.98193 4.47958 4.98193 4.73063 4.73087C4.98168 4.47982 4.98168 4.07279 4.73063 3.82174L3.82149 4.73087ZM3.78782 2.87893C3.53677 2.62788 3.12973 2.62788 2.87868 2.87893C2.62763 3.12998 2.62763 3.53701 2.87868 3.78806L3.78782 2.87893ZM12.2731 11.3642C12.0221 11.1132 11.615 11.1132 11.364 11.3642C11.1129 11.6153 11.1129 12.0223 11.364 12.2733L12.2731 11.3642ZM12.3068 13.2162C12.5578 13.4672 12.9649 13.4672 13.2159 13.2162C13.467 12.9651 13.467 12.5581 13.2159 12.307L12.3068 13.2162ZM4.73063 3.82174L3.78782 2.87893L2.87868 3.78806L3.82149 4.73087L4.73063 3.82174ZM11.364 12.2733L12.3068 13.2162L13.2159 12.307L12.2731 11.3642L11.364 12.2733Z" fill="currentColor"/>
<path d="M2.66683 8.64286C3.02187 8.64286 3.30969 8.35504 3.30969 8C3.30969 7.64496 3.02187 7.35714 2.66683 7.35714V8.64286ZM1.3335 7.35714C0.978456 7.35714 0.690639 7.64496 0.690639 8C0.690639 8.35504 0.978456 8.64286 1.3335 8.64286V7.35714ZM13.3335 7.35714C12.9785 7.35714 12.6906 7.64496 12.6906 8C12.6906 8.35504 12.9785 8.64286 13.3335 8.64286V7.35714ZM14.6668 8.64286C15.0219 8.64286 15.3097 8.35504 15.3097 8C15.3097 7.64496 15.0219 7.35714 14.6668 7.35714V8.64286ZM2.66683 7.35714H1.3335V8.64286H2.66683V7.35714ZM13.3335 8.64286H14.6668V7.35714H13.3335V8.64286Z" fill="currentColor"/>
<path d="M11.364 3.82174C11.1129 4.07279 11.1129 4.47982 11.364 4.73087C11.615 4.98193 12.022 4.98193 12.2731 4.73087L11.364 3.82174ZM13.2159 3.78806C13.467 3.53701 13.467 3.12998 13.2159 2.87893C12.9649 2.62788 12.5578 2.62788 12.3068 2.87893L13.2159 3.78806ZM4.73063 12.2733C4.98168 12.0223 4.98168 11.6153 4.73063 11.3642C4.47958 11.1132 4.07254 11.1132 3.82149 11.3642L4.73063 12.2733ZM2.87868 12.307C2.62763 12.5581 2.62763 12.9651 2.87868 13.2162C3.12973 13.4672 3.53677 13.4672 3.78782 13.2162L2.87868 12.307ZM12.2731 4.73087L13.2159 3.78806L12.3068 2.87893L11.364 3.82174L12.2731 4.73087ZM3.82149 11.3642L2.87868 12.307L3.78782 13.2162L4.73063 12.2733L3.82149 11.3642Z" fill="currentColor"/>
</g>
<defs>
<clipPath id="clip0_553_1309">
<rect width="16" height="16" fill="currentColor"/>
</clipPath>
</defs>
</svg>
